<?xml version='1.0' encoding='utf-8'?>
<svg xmlns="http://www.w3.org/2000/svg" baseProfile="tiny-ps" version="1.2" viewBox="0 0 940 215"><rect width="940" height="215" fill="#ffffff" /><g fill="#f52426"><path d="m69.6 164.8c3.9-12.7 14-24.9 24.9-30.3 5.6-2.8 6.8-3 17.5-3 10.9 0 11.9 0.2 18.3 3.2 11.1 5.3 21.6 18 24.3 29.6l0.6 2.7h-10.5-10.5l-1.1-2.9c-3-7.1-12-12.4-21.1-12.3-9.2 0.1-16.4 4.1-20 11.3l-2 3.9h-10.6c-10.5 0-10.5 0-9.8-2.2z" /><path d="m665.4 69.6c-2.9-2.9-3.4-4.1-3.4-7.9 0-11.8 14.5-16.5 21.9-7.1 1.9 2.4 2.2 3.8 1.8 7.9-0.6 6.8-4.9 10.5-12 10.5-4.2 0-5.4-0.5-8.3-3.4z" /></g><g fill="#f6eee0"><path d="m25 177.5c0-0.4 6.6-13.1 14.6-28.3 8.1-15.2 22.3-42.3 31.7-60.2 28.3-54 24.7-49.5 40.6-49.5 14 0 14.9 0.7 24 17.5 3.7 6.9 17.2 32.1 30.1 56 12.8 23.9 25.4 47.3 28 52s5.2 9.5 5.9 10.8l1.2 2.2h-11.3-11.3l-15.2-28.2c-8.4-15.6-22.5-42-31.5-58.7s-17.1-30.9-18-31.5c-1.3-0.8-2.3-0.8-3.5 0-1 0.6-10 16.6-20.1 35.5s-24.1 45.2-31.2 58.4l-12.8 24-10.6 0.3c-5.8 0.1-10.6 0-10.6-0.3z" /><path d="m99 175.5c0-6.7 5.9-12.5 12.7-12.5 7.6 0 13.3 5.1 13.3 11.9v3.1h-13-13v-2.5z" /><path d="m216 144.5c0-39.6 0.3-40.9 9.9-50.6 8.3-8.2 11.4-9.1 35.2-9.7 22.7-0.5 28.6 0.4 35.9 5.3 4.1 2.7 5.1 3.1 6.1 1.9 0.6-0.7 3.6-2.6 6.8-4.1l5.6-2.8h22.5c26.3 0 29.7 0.7 38 8.2 10 9 11 13.7 11 55.1v30.2h-9.4-9.5l-0.3-32.8c-0.3-36.3-0.3-36.1-7.1-40.2-2.9-1.8-5.1-2-21.7-2s-18.8 0.2-21.7 2c-6.8 4.1-6.8 3.9-7.1 40.2l-0.3 32.8h-9.2-9.2l-0.4-33.3c-0.4-36.2-0.5-37.3-6.1-40.2-2.3-1.2-6.8-1.5-21.3-1.5-17.4 0-18.6 0.1-21.7 2.3-1.8 1.2-4.3 3.5-5.4 5-2 2.7-2.1 4.2-2.4 35.3l-0.3 32.4h-9-8.9v-33.5z" /><path d="m423.6 176.5c-4.7-1.7-10.4-6.1-13.4-10.5-7.5-11.1-4.8-29.8 5.6-37.7 7.6-5.8 11.1-6.3 45-6.3h30.5l-0.6-5.4c-0.6-6.5-2.7-9.9-7.2-12-2.8-1.4-8.3-1.6-36.8-1.6h-33.5l-0.1-9.5v-9.5h33.2c26.8 0 34.4 0.3 39.2 1.5 10 2.6 17.1 8.4 21.4 17.5l2.6 5.5 0.3 34.8 0.3 34.7h-41.3c-32.5-0.1-42.1-0.4-45.2-1.5zm67.6-18.7c0.2-1.3 0.2-5.8 0-10l-0.4-7.8h-29.9-29.9l-3.1 2.8c-5.4 4.8-4 13.6 2.6 16.3 1.1 0.4 15.1 0.8 31.2 0.8l29.2 0.1 0.3-2.2z" /><path d="m532.2 143.3c0.3-34.1 0.3-34.9 2.7-40 2.9-6.6 11.1-14.3 17.6-16.9 4.5-1.7 7.7-1.9 33-1.9 33.6 0 35.6 0.4 44.6 9.4 9.6 9.7 9.9 11 9.9 50.6v33.5h-9-9l-0.2-23.2c-0.1-12.8-0.2-27.1-0.3-31.8 0-9.8-1.8-13.9-7.5-17.8-3.4-2.3-3.8-2.3-28.6-2-23.9 0.3-25.4 0.4-28.1 2.4-1.5 1.2-3.7 3.6-4.8 5.5-1.9 3.2-2 5.5-2.3 35.2l-0.3 31.7h-9-9l0.3-34.7z" /><path d="m664.2 131.3 0.3-46.8h9 9l0.3 46.8 0.2 46.7h-9.5-9.5l0.2-46.7z" /><path d="m731.6 176c-6.3-2.5-12.8-8.9-15.8-15.4-2.1-4.8-2.3-6.7-2.6-31.3l-0.4-26.2-5.6-0.3-5.7-0.3v-9-9l11.2-0.6 0.7-6.1c0.3-3.3 0.6-7.9 0.6-10.2v-4.1l18-6.4v13.4 13.5h17.5 17.5v9.5 9.5h-17.5-17.5v23.3c0 20.1 0.2 23.7 1.8 26.7 2.8 5.7 6.7 7 21 7h12.2v9 9h-15.2c-12.7-0.1-16.2-0.4-20.2-2z" /><path d="m801.4 176.4c-5.9-2.1-12.3-8-15-13.8-1.8-4-2.4-6.8-2.4-12.6 0.1-12 4.4-19.5 14.5-24.8l5-2.7 66.5-0.6v-4c0-5.4-2.6-10.7-6.4-13-2.9-1.8-5.6-1.9-37.8-1.9h-34.8v-9.5-9.5h33.5c34.4 0 40.6 0.5 47.7 4.1 5.5 2.8 10.7 8.4 13.7 14.8l2.6 5.6 0.3 34.8 0.3 34.7-41.8-0.1c-33.9 0-42.6-0.3-45.9-1.5zm68.6-26.4v-10h-30c-33.3 0-34.8 0.3-36.9 6.1-0.6 1.8-1.1 4-1.1 4.9 0 2.3 3.7 6.9 6.4 8 1.1 0.5 15.5 0.9 31.9 0.9l29.7 0.1v-10z" /></g></svg>